<?xml version="1.0" standalone="no"?>
<!DOCTYPE svg PUBLIC "-//W3C//DTD SVG 20010904//EN"
 "http://www.w3.org/TR/2001/REC-SVG-20010904/DTD/svg10.dtd">
<svg version="1.0" xmlns="http://www.w3.org/2000/svg"
 width="2020.000000pt" height="428.000000pt" viewBox="0 0 2020.000000 428.000000"
 preserveAspectRatio="xMidYMid meet">

<g transform="translate(0.000000,428.000000) scale(0.100000,-0.100000)"
fill="#000000" stroke="none">
<path d="M14398 4272 c-88 -1 -148 -7 -148 -12 0 -15 -167 -13 -173 3 -3 7 -6
4 -6 -7 -1 -14 -7 -17 -26 -14 -14 3 -25 2 -25 -3 0 -4 -29 -11 -65 -14 -36
-4 -65 -11 -65 -15 0 -4 -25 -12 -55 -19 -30 -7 -55 -16 -55 -19 0 -4 -26 -13
-57 -21 -32 -7 -61 -17 -64 -22 -3 -5 -17 -10 -32 -11 -15 -1 -27 -6 -27 -10
0 -4 -6 -8 -14 -8 -8 0 -16 -6 -19 -14 -3 -7 -20 -16 -38 -20 -18 -3 -38 -15
-46 -26 -8 -11 -22 -20 -32 -20 -10 0 -28 -9 -41 -20 -21 -18 -41 -25 -62 -21
-5 0 -8 -6 -8 -14 0 -8 -7 -15 -15 -15 -8 0 -15 -4 -15 -10 0 -5 -6 -10 -13
-10 -7 0 -18 -9 -25 -20 -7 -11 -18 -20 -26 -20 -8 0 -17 -7 -20 -16 -4 -9
-13 -14 -21 -10 -8 3 -14 1 -12 -3 4 -14 -55 -60 -70 -54 -8 3 -13 -2 -13 -13
-1 -23 -23 -54 -38 -54 -6 0 -14 -9 -17 -20 -3 -11 -12 -20 -19 -20 -7 0 -18
-11 -24 -25 -6 -14 -18 -25 -26 -25 -8 0 -18 -9 -21 -20 -7 -23 -21 -26 -28
-7 -3 6 -6 -3 -6 -21 -1 -25 -7 -35 -26 -42 -14 -5 -25 -14 -25 -20 0 -5 -15
-25 -32 -44 -18 -20 -40 -45 -49 -57 -9 -13 -20 -19 -27 -15 -18 11 -14 36 6
37 10 0 12 3 5 6 -15 6 -18 53 -3 53 6 0 10 16 10 35 0 19 4 35 9 35 4 0 6 12
3 26 -8 41 18 194 32 194 8 0 11 11 8 30 -2 17 0 30 6 30 7 0 9 13 5 34 -7 47
5 126 20 126 9 0 11 13 9 40 -3 23 0 40 6 40 12 0 0 52 -18 72 -6 7 -17 22
-25 33 -13 19 -28 20 -407 25 l-394 5 4 -27 c2 -16 0 -28 -5 -28 -5 0 -8 -14
-5 -30 7 -48 -8 -140 -22 -140 -9 0 -12 -9 -8 -25 2 -14 0 -25 -5 -25 -5 0 -7
-29 -5 -65 4 -55 2 -65 -12 -65 -9 0 -16 -4 -16 -10 0 -5 5 -10 10 -10 6 0 10
-9 10 -20 0 -11 -6 -20 -14 -20 -9 0 -12 -8 -8 -25 2 -14 0 -25 -4 -25 -5 0
-9 -15 -9 -32 -2 -124 -5 -148 -21 -148 -11 0 -13 -6 -9 -20 10 -31 -5 -90
-24 -91 -10 0 -11 -2 -3 -6 18 -7 17 -123 -2 -123 -9 0 -12 -8 -8 -25 2 -15 0
-25 -7 -25 -7 0 -10 -4 -7 -9 3 -5 3 -30 0 -55 -5 -33 -11 -46 -23 -47 -10 0
-12 -2 -3 -6 8 -3 12 -26 12 -64 0 -40 -4 -59 -12 -59 -7 0 -13 -12 -14 -27
-3 -73 -18 -153 -29 -153 -7 0 -10 -11 -7 -31 7 -45 -18 -179 -33 -179 -9 0
-11 -17 -7 -65 3 -47 1 -65 -7 -65 -7 0 -10 -4 -7 -9 10 -15 -6 -101 -19 -101
-7 0 -10 -11 -7 -30 2 -17 0 -30 -4 -30 -5 0 -7 -27 -6 -60 2 -35 0 -60 -6
-60 -6 0 -8 -8 -5 -19 3 -10 0 -22 -7 -26 -17 -11 -40 15 -40 45 0 16 -6 31
-12 34 -10 5 -10 7 0 12 18 9 15 21 -8 27 -11 3 -20 12 -20 21 0 9 -4 16 -9
16 -8 0 -19 39 -24 83 -1 9 -6 17 -13 17 -6 0 -16 24 -23 54 -7 30 -17 56 -22
58 -6 2 -15 24 -20 48 -5 25 -16 50 -23 55 -8 6 -16 29 -17 50 -3 23 -12 48
-24 59 -14 13 -16 20 -7 23 17 6 15 23 -3 23 -8 0 -15 9 -15 19 0 11 -7 26
-15 34 -8 8 -20 37 -26 63 -7 27 -18 55 -25 62 -7 6 -18 37 -24 67 -6 30 -15
55 -19 55 -14 0 -34 58 -28 80 3 13 0 20 -9 20 -17 0 -18 17 -1 23 7 3 5 6 -5
6 -11 1 -15 6 -12 16 4 8 1 15 -5 15 -6 0 -11 7 -11 15 0 8 -4 15 -8 15 -5 0
-14 18 -21 40 -6 22 -16 40 -21 40 -6 0 -10 11 -10 25 0 25 -19 76 -32 85 -4
3 -8 21 -10 40 -1 19 -8 41 -16 49 -7 7 -11 20 -8 27 3 8 -1 14 -9 14 -18 0
-20 40 -2 41 6 0 1 5 -12 10 -17 7 -22 15 -18 29 3 12 0 20 -7 20 -13 0 -40
86 -31 100 3 4 -4 10 -14 13 -12 3 -20 17 -25 46 -3 22 -11 41 -16 41 -9 0
-27 76 -22 94 2 4 -7 17 -19 27 -12 10 -17 19 -11 19 7 0 12 5 12 10 0 6 -7
10 -16 10 -12 0 -15 7 -12 25 3 14 1 25 -3 25 -5 0 -9 7 -9 15 0 8 -6 15 -12
15 -9 0 -8 4 2 10 13 8 13 10 -1 10 -11 0 -19 12 -23 34 -4 19 -14 37 -22 40
-9 3 -260 6 -559 6 -535 0 -544 0 -550 -20 -6 -18 -8 -18 -21 -5 -14 13 -190
15 -1479 15 -805 0 -1469 2 -1477 3 -7 2 -10 2 -6 0 4 -3 1 -11 -6 -19 -12
-11 -61 -14 -259 -14 -241 0 -277 -3 -277 -21 0 -10 -10 -24 -42 -60 -10 -10
-18 -24 -18 -30 0 -5 -14 -15 -31 -21 -19 -6 -28 -15 -25 -24 3 -7 -3 -19 -12
-26 -9 -7 -23 -25 -31 -40 -8 -15 -27 -33 -43 -40 -27 -13 -38 -28 -18 -28 5
0 -1 -11 -14 -25 -13 -14 -28 -25 -34 -25 -7 0 -14 -11 -18 -25 -6 -23 -15
-30 -37 -26 -5 1 -6 -3 -3 -8 11 -16 -16 -61 -36 -61 -11 0 -17 -4 -13 -9 7
-12 -33 -51 -52 -51 -7 0 -13 -4 -13 -10 0 -5 4 -10 10 -10 5 0 -3 -12 -17
-26 -20 -21 -28 -23 -35 -12 -7 10 -8 8 -4 -5 8 -25 -11 -57 -33 -57 -14 0
-18 -5 -14 -21 4 -15 0 -22 -16 -26 -11 -3 -21 -10 -21 -17 0 -15 -55 -66 -72
-66 -11 0 -11 -2 0 -9 11 -6 8 -14 -11 -33 -14 -14 -32 -28 -41 -31 -9 -4 -16
-15 -16 -24 0 -19 -36 -57 -43 -45 -2 4 -2 1 0 -7 5 -18 -30 -51 -54 -51 -15
0 -16 -2 -3 -10 8 -5 10 -10 4 -10 -6 0 -17 -12 -25 -27 -18 -34 -64 -83 -78
-83 -6 0 -10 -3 -10 -7 4 -22 -3 -35 -26 -45 -14 -6 -24 -17 -23 -24 2 -6 -11
-26 -29 -42 -17 -17 -37 -40 -43 -51 -6 -13 -17 -18 -28 -15 -13 5 -14 4 -4
-4 11 -7 8 -15 -13 -36 -14 -14 -30 -26 -36 -26 -6 0 -7 -4 -4 -10 3 -5 -5
-21 -19 -34 -14 -13 -26 -27 -26 -32 0 -5 -8 -17 -18 -25 -9 -9 -30 -33 -47
-53 -49 -60 -82 -93 -96 -98 -8 -3 -14 -13 -14 -24 0 -10 -7 -19 -15 -19 -12
0 -15 13 -13 69 2 38 7 72 13 76 6 4 15 56 20 116 5 60 14 110 20 112 5 2 10
15 10 28 0 13 4 24 9 24 5 0 9 12 8 28 -3 87 4 142 17 142 11 0 13 9 9 35 -3
20 -1 35 4 35 6 0 8 11 5 25 -2 14 0 25 4 25 5 0 7 27 6 60 -3 53 -2 60 15 61
10 0 13 3 6 6 -18 7 -17 63 1 63 9 0 12 8 8 25 -2 14 0 25 4 25 5 0 10 39 12
88 2 48 8 89 13 90 5 2 9 15 9 28 0 13 4 24 9 24 4 0 8 15 8 33 -3 91 3 137
17 137 11 0 13 9 9 35 -3 19 -2 35 3 35 5 0 10 21 11 47 1 27 7 49 13 51 19 7
10 35 -18 62 -16 15 -32 34 -35 44 -6 15 -50 16 -492 16 -317 0 -485 -3 -485
-10 0 -5 -7 -10 -15 -10 -8 0 -15 -4 -15 -10 0 -5 5 -10 10 -10 6 0 10 -22 10
-50 0 -37 -4 -50 -14 -50 -11 0 -13 -9 -9 -35 3 -20 1 -35 -4 -35 -6 0 -8 -11
-5 -25 2 -14 0 -25 -4 -25 -5 0 -10 -39 -10 -87 -1 -54 -6 -89 -13 -91 -6 -2
-11 -17 -11 -33 0 -16 -4 -29 -9 -29 -4 0 -6 -11 -3 -25 3 -19 0 -25 -14 -26
-11 0 -14 -3 -6 -6 15 -6 17 -123 2 -123 -5 0 -10 -11 -10 -25 0 -14 -4 -25
-9 -25 -4 0 -6 -11 -3 -25 3 -18 0 -25 -12 -25 -9 0 -16 -4 -16 -10 0 -5 5
-10 10 -10 6 0 10 -22 10 -50 0 -27 -4 -50 -10 -50 -5 0 -10 -11 -10 -25 0
-14 -4 -25 -9 -25 -6 0 -7 -16 -4 -35 5 -29 3 -35 -13 -36 -11 0 -14 -3 -6 -6
13 -5 17 -63 3 -63 -4 0 -11 -37 -15 -82 -4 -45 -10 -85 -14 -88 -4 -3 -7 -17
-8 -32 -2 -101 -5 -118 -18 -118 -11 0 -13 -10 -9 -40 4 -27 2 -40 -6 -40 -7
0 -9 -5 -6 -11 11 -16 -5 -99 -18 -99 -8 0 -11 -17 -9 -55 3 -37 0 -55 -8 -55
-7 0 -9 -8 -5 -20 9 -29 -4 -100 -19 -100 -9 0 -11 -15 -8 -55 3 -38 1 -55 -7
-55 -7 0 -9 -5 -6 -11 12 -18 -5 -119 -19 -119 -9 0 -12 -9 -8 -25 2 -14 0
-25 -4 -25 -5 0 -7 -27 -6 -60 3 -53 2 -60 -15 -61 -10 0 -13 -3 -5 -6 14 -6
17 -53 2 -53 -5 0 -10 -13 -10 -30 0 -16 -4 -30 -9 -30 -4 0 -6 -11 -3 -25 2
-14 0 -25 -4 -25 -5 0 -7 -27 -6 -60 3 -53 2 -60 -15 -61 -10 0 -13 -3 -5 -6
16 -6 16 -53 0 -53 -8 0 -13 -16 -14 -43 -1 -91 -16 -197 -27 -197 -7 0 -12
-15 -13 -32 -2 -87 -18 -188 -28 -188 -8 0 -10 -13 -8 -35 2 -19 0 -35 -5 -35
-4 0 -8 -12 -9 -27 -1 -113 -5 -143 -17 -143 -9 0 -12 -10 -9 -30 2 -17 0 -30
-4 -30 -5 0 -10 -17 -10 -37 -5 -103 -17 -183 -30 -183 -9 0 -11 -10 -7 -35 3
-20 1 -35 -4 -35 -6 0 -8 -11 -5 -25 3 -18 0 -25 -12 -25 -9 0 -16 -4 -16 -10
0 -5 5 -10 10 -10 6 0 10 -22 10 -50 0 -27 -4 -50 -10 -50 -5 0 -10 -8 -10
-18 0 -27 -10 -33 -32 -21 -13 7 -18 18 -15 30 3 10 1 19 -5 19 -6 0 -8 15 -6
35 3 24 0 35 -9 35 -7 0 -13 5 -13 10 0 6 5 10 10 10 6 0 10 5 10 10 0 6 -7
10 -16 10 -11 0 -14 6 -9 20 4 12 2 20 -5 20 -8 0 -11 11 -8 30 3 20 0 30 -9
30 -17 0 -17 27 0 33 7 4 6 6 -4 6 -16 1 -39 65 -39 110 0 12 -4 21 -10 21
-14 0 -12 27 3 33 7 3 4 6 -7 6 -13 1 -17 6 -13 21 3 11 1 20 -4 20 -5 0 -9
15 -9 34 0 19 -6 37 -12 40 -11 5 -11 7 0 12 17 8 15 24 -2 24 -16 0 -31 34
-21 50 3 5 0 10 -8 10 -14 0 -27 62 -29 128 0 12 -6 22 -14 22 -8 0 -14 5 -14
10 0 6 5 10 10 10 6 0 10 5 10 10 0 6 -7 10 -15 10 -8 0 -15 9 -15 20 0 30
-23 110 -32 110 -13 0 -9 58 5 63 7 4 6 6 -4 6 -17 1 -34 45 -24 61 4 6 0 10
-8 10 -14 0 -27 40 -27 86 0 12 -6 29 -14 37 -8 7 -19 44 -25 82 -5 38 -16 72
-23 76 -7 4 -13 26 -13 48 0 23 -3 41 -7 41 -5 0 -8 11 -8 24 0 13 -4 26 -9
28 -6 2 -18 42 -27 91 -9 48 -21 87 -26 87 -13 0 -9 28 5 33 7 3 4 6 -7 6 -13
1 -17 6 -13 21 3 11 1 20 -4 20 -5 0 -9 11 -9 25 0 14 -4 25 -10 25 -5 0 -10
9 -10 20 0 11 5 20 10 20 6 0 10 5 10 10 0 6 -7 10 -16 10 -11 0 -14 6 -9 20
4 11 2 20 -4 20 -6 0 -11 11 -11 24 0 13 -5 26 -11 28 -6 2 -11 20 -12 41 0
20 -5 37 -10 37 -4 0 -5 9 -2 20 5 14 2 20 -9 20 -15 0 -17 6 -20 78 -1 9 -5
20 -10 23 -4 4 -11 28 -14 55 -2 27 -10 52 -16 56 -7 5 -7 8 -1 8 6 0 19 17
30 38 22 42 35 53 49 45 5 -3 6 -1 2 5 -7 12 31 52 51 52 7 0 13 3 14 8 4 43
31 78 50 66 5 -3 6 2 3 11 -5 11 9 31 40 60 25 25 46 49 46 53 0 5 11 21 25
36 14 15 25 31 25 37 0 5 9 9 21 9 11 0 18 4 14 9 -6 10 32 51 47 51 5 0 8 6
6 13 -3 15 41 67 58 67 8 0 11 6 7 16 -4 10 1 17 16 21 11 3 21 11 21 19 0 7
8 19 18 26 10 7 21 21 25 31 4 11 12 15 18 11 8 -4 9 -3 5 5 -8 12 29 53 56
64 10 4 10 6 0 6 -7 1 1 15 18 31 17 17 35 28 40 25 6 -3 7 1 4 9 -7 18 33 65
56 66 13 0 13 1 0 11 -12 8 -12 12 -2 16 7 3 18 12 25 19 7 8 19 23 28 32 9 9
19 25 22 36 5 11 13 16 23 12 8 -3 12 -2 9 4 -6 10 42 63 68 73 9 3 14 12 11
20 -3 8 2 20 11 27 8 7 15 18 15 25 0 8 13 19 30 27 17 7 30 17 30 23 0 20
102 135 119 135 13 0 6 51 -9 60 -6 4 -15 23 -19 41 l-7 34 -454 3 c-309 2
-461 -1 -475 -8 -11 -6 -26 -24 -33 -40 -7 -16 -26 -35 -42 -42 -19 -8 -32
-23 -36 -41 -3 -16 -13 -31 -21 -34 -8 -3 -19 -16 -24 -29 -5 -14 -17 -24 -28
-24 -13 0 -18 -5 -15 -13 3 -8 -9 -25 -25 -38 -17 -13 -31 -31 -31 -39 0 -8
-9 -21 -20 -28 -11 -7 -20 -18 -20 -25 0 -8 -11 -20 -25 -27 -14 -7 -25 -20
-25 -27 0 -8 -27 -41 -60 -74 -33 -32 -57 -59 -54 -59 11 0 -40 -46 -57 -52
-9 -4 -19 -20 -22 -37 -4 -18 -13 -31 -21 -31 -8 0 -16 -10 -18 -22 -2 -13
-13 -27 -25 -33 -13 -5 -23 -18 -23 -28 0 -11 -9 -21 -20 -24 -11 -3 -20 -10
-20 -17 0 -6 -12 -22 -25 -35 -14 -13 -25 -27 -25 -33 0 -13 -56 -68 -70 -68
-6 0 -9 -4 -5 -10 3 -5 -12 -27 -33 -48 -22 -22 -42 -46 -44 -53 -3 -8 -13
-14 -24 -14 -11 0 -18 -6 -16 -14 4 -17 -26 -51 -45 -51 -8 0 -13 -6 -12 -12
3 -21 -12 -48 -28 -48 -8 0 -11 -4 -8 -10 3 -5 -5 -21 -19 -34 -14 -13 -26
-26 -26 -30 0 -4 -20 -27 -44 -51 -24 -23 -47 -52 -51 -64 -6 -21 -20 -28 -28
-13 -2 4 -3 2 -1 -3 3 -15 -17 -40 -38 -48 -11 -4 -15 -12 -12 -21 4 -10 -3
-20 -20 -27 -14 -7 -26 -18 -26 -26 0 -7 -4 -13 -8 -13 -5 0 -14 -11 -20 -25
-6 -13 -17 -23 -24 -21 -7 1 -10 1 -5 -1 16 -10 5 -31 -23 -43 -16 -7 -30 -18
-30 -24 0 -6 -5 -3 -11 6 -16 28 0 138 20 139 10 0 11 2 4 6 -18 7 -17 53 1
53 9 0 14 10 13 28 -3 90 3 132 21 133 10 0 12 3 5 6 -15 5 -18 73 -4 73 9 0
13 27 27 158 4 43 10 62 20 62 8 0 14 5 14 10 0 6 -4 10 -10 10 -5 0 -10 11
-10 25 0 14 6 25 14 25 9 0 12 8 8 25 -2 14 0 25 5 25 5 0 8 14 5 30 -7 47 8
140 22 140 8 0 11 12 8 35 -2 19 0 35 6 35 5 0 7 11 4 25 -3 19 0 25 14 26 11
0 14 3 7 6 -18 7 -18 113 0 113 9 0 12 10 9 30 -3 18 0 30 7 30 7 0 9 9 5 25
-5 19 -2 25 10 25 9 0 16 5 16 10 0 6 -4 10 -10 10 -5 0 -10 23 -10 50 0 28 5
50 10 50 6 0 10 11 10 25 0 14 4 25 9 25 6 0 7 16 4 35 -5 29 -3 35 13 36 13
0 15 2 5 6 -24 9 -72 63 -66 74 4 5 -180 9 -484 9 l-491 0 0 -40 c0 -27 -4
-40 -14 -40 -9 0 -12 -8 -8 -25 2 -14 0 -25 -4 -25 -5 0 -9 -12 -10 -27 -1
-113 -5 -143 -17 -143 -9 0 -12 -10 -9 -30 2 -18 0 -30 -7 -30 -6 0 -8 -11 -5
-30 4 -17 2 -30 -3 -30 -6 0 -8 -11 -5 -25 3 -19 0 -25 -14 -26 -11 0 -14 -3
-6 -6 18 -7 17 -123 -2 -123 -9 0 -12 -8 -8 -25 2 -14 0 -25 -4 -25 -5 0 -10
-26 -10 -57 -1 -32 -7 -59 -13 -61 -6 -2 -11 -28 -11 -63 0 -32 -3 -59 -7 -59
-5 0 -9 -21 -9 -47 -1 -26 -7 -49 -13 -51 -7 -2 -11 -30 -11 -68 0 -39 -4 -64
-11 -64 -6 0 -8 -8 -4 -20 9 -27 -5 -90 -20 -90 -8 0 -10 -9 -7 -25 2 -14 0
-25 -5 -25 -5 0 -7 -17 -5 -37 7 -53 -17 -203 -32 -203 -8 0 -11 -12 -8 -35 2
-20 1 -60 -3 -90 -5 -42 -11 -55 -23 -56 -11 0 -12 -2 -4 -6 17 -7 15 -43 -2
-43 -9 0 -14 -10 -13 -27 1 -16 0 -58 -1 -95 -2 -57 -5 -68 -19 -69 -11 0 -13
-3 -5 -6 16 -6 15 -43 -2 -43 -9 0 -12 -8 -8 -25 2 -14 0 -25 -4 -25 -5 0 -7
-27 -6 -60 3 -50 1 -60 -12 -60 -9 0 -16 -7 -16 -15 0 -8 5 -15 10 -15 6 0 10
-9 10 -20 0 -11 -6 -20 -12 -20 -8 0 -14 -14 -14 -32 -5 -102 -18 -198 -28
-198 -6 0 -11 -17 -12 -37 -3 -96 -17 -183 -30 -183 -8 0 -14 -4 -14 -10 0 -5
5 -10 10 -10 6 0 10 -11 10 -25 0 -14 -6 -25 -12 -25 -8 0 -14 -14 -15 -32 -6
-125 -17 -198 -28 -198 -6 0 -12 -14 -12 -32 -2 -109 -17 -208 -30 -208 -8 0
-12 -4 -8 -9 9 -15 -17 -151 -29 -151 -7 0 -11 -31 -12 -87 0 -50 -5 -88 -11
-90 -5 -2 -8 -15 -5 -28 3 -18 0 -25 -12 -25 -9 0 -16 -4 -16 -10 0 -5 5 -10
10 -10 6 0 10 -9 10 -20 0 -11 -6 -20 -12 -20 -10 0 -12 -18 -10 -65 2 -37 0
-65 -6 -65 -5 0 -7 -11 -4 -25 3 -19 0 -25 -14 -26 -11 0 -14 -3 -6 -6 16 -6
16 -43 0 -43 -19 0 -10 -107 10 -130 10 -10 24 -27 33 -39 15 -20 21 -20 502
-23 268 -2 483 -2 477 0 -16 6 -12 42 5 42 11 0 13 8 9 30 -10 47 5 140 22
140 8 0 14 5 14 10 0 6 -4 10 -10 10 -5 0 -10 11 -10 25 0 14 6 25 13 25 8 0
13 19 14 58 3 99 13 162 27 162 9 0 13 14 13 43 0 83 15 187 29 187 9 0 11 10
7 35 -4 22 -2 35 5 35 7 0 9 11 6 30 -5 25 -3 30 12 31 11 0 14 3 7 6 -19 7
-17 83 1 83 8 0 18 9 21 21 4 11 18 24 31 29 14 6 24 16 22 22 -3 16 32 58 49
58 7 0 13 9 13 19 0 11 9 26 19 33 11 8 25 26 32 41 7 15 18 27 24 27 6 0 17
11 23 25 6 14 16 25 22 25 5 0 10 7 10 15 0 9 11 20 25 25 14 5 25 14 25 21 0
15 56 69 72 69 10 0 10 2 -1 9 -10 7 -6 15 19 40 18 17 37 31 41 31 5 0 9 7 9
15 0 16 46 65 60 65 6 0 9 3 9 7 -3 21 2 33 14 33 8 0 19 10 25 23 6 12 11 16
11 10 1 -7 11 -13 22 -13 18 0 21 -5 17 -30 -3 -17 -1 -30 4 -30 4 0 8 -6 8
-14 0 -8 4 -16 9 -18 5 -2 15 -32 22 -68 7 -36 17 -68 22 -71 4 -3 9 -22 10
-42 1 -20 6 -37 11 -37 4 0 6 -18 4 -40 -2 -25 1 -40 8 -40 12 0 44 -105 44
-145 0 -14 4 -25 8 -25 10 0 32 -90 32 -131 0 -16 4 -29 10 -29 13 0 32 -77
25 -100 -4 -14 -2 -20 9 -20 19 0 22 -46 4 -53 -8 -3 -6 -6 4 -6 11 -1 19 -13
24 -36 3 -19 10 -35 15 -35 5 0 9 -14 9 -32 0 -35 20 -99 33 -109 5 -4 10 -31
11 -60 0 -30 7 -60 14 -67 6 -7 12 -22 12 -33 0 -10 5 -19 10 -19 6 0 10 -9
10 -20 0 -11 -4 -20 -10 -20 -5 0 -10 -4 -10 -10 0 -5 6 -10 14 -10 8 0 16
-16 20 -42 4 -23 12 -45 18 -49 6 -4 11 -31 12 -60 1 -41 6 -59 23 -76 l22
-23 522 0 521 0 29 31 c27 29 29 30 46 13 10 -9 18 -23 18 -31 0 -11 80 -14
484 -13 267 0 487 3 490 6 3 3 7 36 9 75 3 55 8 69 21 70 10 0 11 2 4 6 -17 6
-17 43 0 43 7 0 13 10 13 23 1 124 4 147 22 148 10 0 12 3 5 6 -19 7 -17 63 3
63 8 0 13 4 9 9 -11 19 7 91 24 92 10 0 11 2 4 6 -15 5 -18 123 -4 123 5 0 12
25 16 55 5 42 11 55 23 56 11 0 12 2 5 6 -19 7 -18 113 1 113 9 0 12 7 9 20
-6 23 12 50 30 46 7 -1 9 -1 5 1 -15 9 -8 32 12 38 11 3 20 13 20 21 0 8 7 14
15 14 8 0 15 5 15 11 0 14 41 53 65 62 9 4 13 11 10 17 -3 5 4 20 17 32 13 13
30 35 37 50 8 15 26 33 41 40 16 7 32 25 39 45 7 18 17 34 22 34 5 1 14 3 19
4 6 1 16 3 23 4 8 1 7 4 -3 11 -13 8 -12 12 8 25 12 9 22 21 22 26 0 16 53 69
69 69 7 0 11 6 8 13 -5 15 43 67 62 67 6 0 11 8 11 18 1 36 50 73 50 37 0 -8
5 -15 10 -15 6 0 10 -7 10 -15 0 -8 5 -15 10 -15 14 0 12 -37 -2 -43 -8 -3 -7
-6 4 -6 12 -1 19 -14 24 -46 3 -25 10 -45 15 -45 14 0 11 -38 -3 -43 -8 -3 -5
-6 6 -6 13 -1 17 -6 13 -21 -3 -11 -1 -20 4 -20 5 0 9 -6 9 -14 0 -8 5 -16 10
-18 6 -2 12 -29 13 -61 1 -31 5 -57 10 -57 4 0 7 -9 7 -20 0 -11 5 -20 10 -20
15 0 12 -47 -2 -53 -8 -4 -7 -6 4 -6 17 -1 34 -52 23 -71 -3 -5 -1 -10 4 -10
6 0 11 -9 11 -19 0 -11 5 -21 10 -23 6 -2 12 -24 13 -51 1 -26 6 -47 11 -47 4
0 6 -9 3 -20 -3 -12 0 -20 8 -20 13 0 27 -60 28 -117 0 -19 6 -33 12 -33 7 0
18 -28 25 -62 6 -35 16 -66 22 -69 5 -3 10 -30 11 -60 1 -30 8 -60 15 -68 8
-8 12 -25 9 -38 -3 -14 1 -23 8 -23 8 0 18 -26 25 -70 6 -38 15 -70 19 -70 5
0 13 -30 19 -67 6 -36 15 -69 20 -72 5 -3 13 -21 17 -39 l7 -32 523 0 524 0
24 23 c13 12 26 30 30 40 3 9 11 17 17 17 5 0 10 9 10 20 0 11 -4 20 -10 20
-14 0 -12 27 3 33 7 3 5 6 -5 6 -14 1 -18 10 -18 35 0 19 -7 41 -15 50 -17 17
-20 46 -5 46 6 0 10 5 10 10 0 6 -7 10 -16 10 -8 0 -12 4 -9 10 3 5 1 10 -4
10 -6 0 -11 16 -11 35 0 19 -4 35 -10 35 -14 0 -12 37 3 43 7 3 5 6 -5 6 -11
1 -15 6 -12 16 4 8 2 15 -4 15 -5 0 -12 22 -16 50 -4 27 -11 50 -16 50 -14 0
-12 27 3 33 7 4 6 6 -4 6 -18 1 -29 29 -29 78 0 17 -6 34 -12 36 -10 4 -9 8 2
16 13 9 12 11 -4 11 -12 0 -16 5 -12 15 3 8 1 15 -4 15 -6 0 -10 16 -10 35 0
19 -4 35 -10 35 -14 0 -12 37 3 43 7 3 4 6 -6 6 -10 1 -15 6 -12 11 3 6 1 10
-4 10 -6 0 -11 7 -11 15 0 8 -4 15 -10 15 -15 0 -12 77 3 83 7 3 4 6 -7 6 -11
1 -16 6 -13 15 3 8 1 16 -5 18 -5 2 -12 25 -15 51 -3 26 -10 47 -14 47 -14 0
-11 28 4 33 7 3 4 6 -7 6 -12 1 -16 6 -12 16 3 8 1 15 -4 15 -6 0 -10 7 -10
15 0 8 -4 15 -10 15 -5 0 -10 16 -10 35 0 19 5 35 10 35 6 0 10 5 10 10 0 6
-7 10 -15 10 -8 0 -17 11 -21 25 -3 14 -10 25 -15 25 -14 0 -11 78 4 83 7 3 5
6 -5 6 -10 1 -18 7 -18 15 0 8 -7 21 -15 30 -8 8 -19 45 -24 82 -6 37 -16 71
-22 75 -8 4 -13 30 -13 63 -1 31 -4 56 -8 56 -4 0 -10 10 -14 23 -4 12 -11 24
-15 28 -5 3 -13 33 -17 68 -5 35 -14 66 -21 70 -7 5 -13 24 -14 44 -1 20 -5
37 -9 37 -5 0 -8 15 -8 34 0 19 -5 36 -10 38 -6 2 -11 18 -13 36 -1 17 -5 32
-9 32 -5 0 -8 16 -8 35 0 19 -4 35 -9 35 -10 0 -26 65 -23 93 1 9 -3 17 -8 17
-6 0 -10 15 -10 34 0 19 -5 36 -11 38 -7 2 -12 18 -13 36 0 18 -4 32 -8 32
-15 0 -8 47 11 66 10 11 24 30 30 42 6 12 18 22 26 22 8 0 15 6 15 14 0 8 8
21 18 28 10 7 21 21 25 30 4 11 13 16 24 12 15 -5 15 -4 4 4 -13 9 -11 14 10
31 13 11 30 20 38 21 7 0 11 6 8 14 -7 17 39 70 53 61 6 -4 7 1 3 10 -4 11 3
25 21 40 14 12 26 25 26 29 0 4 27 34 60 67 33 32 60 61 60 64 0 3 0 10 0 15
0 6 16 18 35 27 21 10 35 24 35 35 0 16 52 78 66 78 10 0 43 -44 44 -57 0 -10
97 -13 449 -13 l449 0 6 -22 c10 -40 7 -58 -11 -59 -11 0 -13 -3 -5 -6 18 -7
15 -53 -3 -53 -11 0 -14 -7 -9 -25 3 -14 3 -50 -1 -80 -5 -42 -11 -55 -23 -56
-11 0 -12 -2 -4 -6 17 -7 16 -73 -2 -73 -9 0 -12 -7 -9 -21 8 -31 -18 -199
-31 -199 -7 0 -12 -23 -13 -58 -2 -94 -14 -162 -26 -162 -8 0 -13 -23 -14 -67
-3 -119 -12 -173 -31 -174 -11 0 -12 -2 -4 -6 16 -6 16 -63 -1 -63 -7 0 -12
-12 -13 -27 -1 -125 -4 -143 -21 -144 -11 0 -13 -3 -5 -6 14 -6 17 -53 2 -53
-5 0 -10 -11 -10 -25 0 -14 -4 -25 -8 -25 -5 0 -6 -27 -4 -60 4 -53 2 -60 -14
-61 -11 0 -14 -3 -6 -6 17 -7 15 -43 -3 -43 -11 0 -13 -8 -9 -30 4 -18 2 -30
-4 -30 -7 0 -9 -13 -5 -35 4 -28 2 -35 -11 -35 -9 0 -16 -4 -16 -10 0 -5 5
-10 10 -10 6 0 10 -20 10 -45 0 -31 -4 -45 -14 -45 -9 0 -12 -8 -8 -25 2 -14
0 -25 -6 -25 -7 0 -9 -14 -5 -35 5 -29 3 -35 -13 -36 -11 0 -14 -3 -6 -6 6 -2
12 -16 12 -29 0 -13 -6 -24 -12 -24 -9 0 -13 -22 -14 -76 0 -41 -4 -79 -10
-82 -5 -4 -10 -45 -12 -92 -1 -47 -7 -86 -12 -88 -6 -2 -10 -17 -10 -33 0 -16
-3 -29 -7 -29 -5 0 -9 -28 -10 -62 -1 -35 -7 -64 -13 -66 -5 -2 -10 -18 -10
-35 0 -78 -13 -137 -29 -138 -10 0 -12 -2 -3 -6 16 -6 16 -43 -1 -43 -9 0 -12
-10 -9 -30 2 -17 1 -55 -3 -85 -5 -42 -11 -55 -23 -56 -11 0 -12 -2 -4 -6 16
-6 16 -63 0 -63 -9 0 -13 -17 -12 -53 1 -72 1 -74 25 -80 16 -4 20 -11 16 -26
-5 -20 0 -20 504 -21 l509 0 0 25 c0 14 5 25 10 25 6 0 10 14 10 30 0 17 3 30
8 30 4 0 6 19 4 41 -6 57 18 189 33 189 8 0 10 9 7 25 -2 14 0 25 5 25 5 0 7
29 5 65 -4 55 -2 65 12 65 9 0 16 5 16 10 0 6 -4 10 -10 10 -5 0 -10 9 -10 20
0 11 6 20 14 20 9 0 12 8 8 25 -2 14 0 25 4 25 5 0 7 29 6 65 -3 57 -2 65 15
66 10 0 13 3 6 6 -18 7 -16 43 2 43 11 0 13 8 9 30 -4 17 -3 30 2 30 5 0 9 12
10 28 1 123 5 152 18 152 9 0 12 8 8 25 -2 14 0 25 5 25 5 0 9 10 9 23 1 71 5
97 17 97 9 0 12 11 9 36 -7 54 18 184 34 184 8 0 14 5 14 10 0 6 -4 10 -10 10
-5 0 -10 25 -10 55 0 30 4 55 8 55 5 0 15 38 22 85 9 57 18 85 26 85 10 0 12
9 7 31 -8 40 17 199 31 199 7 0 10 23 8 65 -2 37 0 65 6 65 5 0 7 11 4 25 -3
19 0 25 14 26 11 0 14 3 7 6 -7 2 -13 13 -13 24 0 10 6 19 13 19 8 0 13 27 15
93 2 50 7 93 11 95 5 1 6 14 3 27 -3 19 0 25 14 26 11 0 14 3 7 6 -7 2 -13 13
-13 24 0 10 6 19 13 19 9 0 11 18 9 65 -2 37 0 65 6 65 5 0 7 11 4 25 -3 18 0
25 12 25 9 0 16 5 16 10 0 6 -4 10 -10 10 -5 0 -10 9 -10 20 0 11 6 20 14 20
9 0 12 8 8 25 -2 14 0 25 4 25 5 0 7 29 6 65 -3 57 -2 65 15 66 10 0 13 3 6 6
-16 6 -17 50 -1 55 6 2 13 37 16 86 3 61 8 82 18 82 8 0 14 7 14 15 0 13 57
15 449 15 247 0 456 -3 465 -6 17 -6 23 -44 7 -44 -5 0 -13 -25 -16 -55 -6
-41 -11 -55 -24 -56 -10 0 -11 -2 -3 -6 8 -3 12 -26 12 -64 0 -47 -3 -59 -16
-59 -8 0 -13 -4 -9 -9 11 -19 -7 -91 -24 -92 -10 0 -11 -2 -3 -6 16 -6 16 -63
-1 -63 -9 0 -11 -12 -9 -40 6 -57 -6 -110 -23 -110 -8 0 -15 -4 -15 -10 0 -5
5 -10 10 -10 6 0 10 -13 10 -30 0 -17 -5 -30 -12 -30 -9 0 -13 -22 -13 -75 0
-42 -4 -79 -10 -83 -5 -4 -11 -36 -13 -72 -2 -36 -7 -66 -13 -68 -5 -2 -9 -22
-9 -45 0 -72 -11 -117 -29 -118 -10 0 -11 -2 -3 -6 16 -6 15 -43 -2 -43 -10 0
-12 -11 -8 -45 6 -57 -17 -195 -32 -195 -8 0 -10 -13 -8 -35 2 -19 0 -35 -4
-35 -5 0 -10 -37 -10 -82 -1 -50 -6 -84 -13 -86 -6 -2 -11 -15 -11 -28 0 -13
-4 -24 -8 -24 -5 0 -7 -14 -4 -30 2 -16 0 -30 -5 -30 -5 0 -7 -27 -5 -60 4
-53 2 -60 -14 -61 -11 0 -14 -3 -6 -6 14 -6 16 -43 2 -43 -5 0 -10 -16 -10
-35 0 -19 -3 -35 -7 -35 -5 0 -8 -37 -9 -82 0 -53 -5 -83 -12 -86 -7 -2 -12
-15 -12 -28 0 -13 -5 -24 -10 -24 -7 0 -8 -13 -4 -35 5 -30 3 -35 -12 -36 -11
0 -14 -3 -6 -6 14 -6 17 -113 3 -113 -5 0 -13 -25 -16 -55 -5 -37 -12 -55 -21
-55 -8 0 -14 -4 -14 -10 0 -5 5 -10 10 -10 6 0 10 -20 10 -45 0 -31 -4 -45
-14 -45 -9 0 -12 -8 -8 -25 2 -14 0 -25 -5 -25 -5 0 -7 -16 -5 -35 3 -22 0
-35 -7 -35 -7 0 -10 -4 -7 -9 11 -17 -6 -161 -19 -161 -7 0 -10 -11 -7 -30 2
-17 0 -30 -6 -30 -18 0 5 -77 32 -106 14 -16 24 -33 22 -39 -2 -7 131 -9 390
-7 l394 2 0 40 c0 22 4 40 10 40 5 0 7 13 4 30 -5 25 -3 30 12 31 11 0 14 3 7
6 -19 7 -16 43 3 43 10 0 14 5 10 15 -3 9 -3 49 1 90 5 59 9 75 22 76 10 0 12
2 4 6 -18 7 -16 43 1 43 11 0 13 9 9 35 -3 19 -2 35 3 35 5 0 7 27 6 60 -3 53
-2 60 15 61 10 0 13 3 6 6 -15 5 -18 53 -4 53 5 0 13 25 16 55 4 30 10 55 14
55 3 0 6 39 7 86 0 55 5 88 12 93 8 4 16 53 22 122 6 63 15 115 20 117 6 2 10
12 10 23 0 10 4 19 8 19 5 0 7 13 4 30 -3 23 0 30 12 30 9 0 16 7 16 15 0 8
-4 15 -10 15 -5 0 -10 23 -10 50 0 28 5 50 10 50 6 0 10 9 10 20 0 11 4 20 9
20 4 0 6 11 3 25 -3 18 0 25 12 25 9 0 16 7 16 15 0 8 -4 15 -10 15 -5 0 -10
23 -10 50 0 37 4 50 15 50 11 0 13 8 9 30 -4 17 -2 30 3 30 6 0 8 11 5 25 -2
15 0 25 7 25 7 0 10 4 6 9 -3 6 -3 46 1 90 5 57 11 81 20 81 10 0 12 9 8 30
-4 17 -2 30 3 30 5 0 8 14 5 30 -3 24 -1 30 14 31 11 0 14 3 7 6 -19 7 -18
113 1 113 9 0 12 8 8 25 -2 15 0 25 7 25 7 0 9 5 6 10 -12 19 6 110 21 110 8
0 11 6 8 15 -9 22 3 45 20 39 8 -3 19 -19 25 -35 5 -16 15 -29 20 -29 16 0 14
-60 -1 -61 -7 0 -3 -4 9 -9 16 -7 24 -21 29 -50 4 -22 10 -40 13 -40 4 0 13
-17 20 -37 8 -21 17 -40 21 -43 5 -3 10 -21 12 -40 1 -19 11 -42 21 -51 18
-18 23 -49 7 -49 -5 0 -10 -4 -10 -10 0 -5 7 -10 16 -10 8 0 12 -4 9 -10 -3
-5 -1 -10 4 -10 6 0 11 -6 11 -14 0 -8 7 -17 16 -20 12 -5 15 -16 12 -41 -2
-22 1 -36 9 -39 7 -3 13 -12 13 -20 0 -8 4 -16 10 -18 5 -2 11 -19 12 -38 1
-21 12 -45 26 -59 17 -17 23 -32 20 -52 -3 -16 -1 -29 4 -29 4 0 8 -6 8 -14 0
-8 6 -16 14 -19 7 -3 16 -23 20 -45 3 -22 12 -43 18 -46 10 -5 10 -7 1 -12
-19 -9 -16 -21 7 -27 19 -5 24 -21 23 -79 0 -10 6 -18 14 -18 13 0 30 -47 19
-57 -3 -3 2 -13 12 -22 27 -26 45 -67 40 -95 -3 -15 -1 -26 6 -26 15 0 36 -48
29 -66 -3 -8 1 -14 9 -14 8 0 19 -20 27 -45 7 -25 17 -45 22 -45 14 0 11 -38
-3 -43 -8 -3 -6 -6 5 -6 15 -1 22 -18 18 -43 0 -5 4 -8 9 -8 6 0 10 -7 10 -15
0 -8 3 -15 8 -15 4 0 13 -23 20 -52 6 -28 17 -55 22 -58 6 -4 12 -20 13 -36 1
-16 13 -40 25 -53 18 -18 23 -32 20 -57 -3 -26 0 -35 13 -39 12 -4 22 -24 29
-61 7 -30 18 -58 26 -61 17 -6 18 -30 2 -36 -8 -3 -5 -6 6 -6 14 -1 17 -7 14
-26 -4 -18 0 -26 13 -30 22 -7 25 -31 7 -38 -8 -3 -5 -6 6 -6 15 -1 17 -6 13
-31 -4 -18 -2 -30 4 -30 6 0 7 -4 4 -10 -3 -5 0 -10 8 -10 16 0 37 -41 37 -70
0 -11 4 -20 9 -20 5 0 15 -22 22 -50 l13 -50 457 0 457 0 -5 39 c-7 55 15 171
33 171 11 0 13 9 8 40 -4 26 -3 40 4 40 7 0 9 13 5 34 -9 55 5 126 25 127 11
0 12 3 5 6 -7 2 -13 20 -13 39 0 21 5 34 13 34 8 0 11 15 9 50 -3 31 0 50 7
50 6 0 8 12 5 30 -5 25 -3 30 12 30 16 0 17 2 4 10 -13 8 -12 10 3 10 26 0 47
-24 47 -54 0 -14 5 -28 10 -31 6 -3 10 -15 10 -26 0 -10 7 -19 15 -19 8 0 15
-7 15 -15 0 -17 20 -56 35 -68 6 -6 6 -10 -2 -14 -18 -7 -16 -23 2 -23 8 0 15
-4 15 -10 0 -5 6 -10 14 -10 7 0 19 -13 26 -30 7 -16 18 -30 24 -30 6 0 4 -5
-4 -10 -8 -5 -10 -10 -4 -10 16 0 74 -52 74 -66 0 -6 9 -14 19 -17 11 -3 22
-17 26 -36 6 -30 25 -44 25 -18 0 8 3 7 9 -3 6 -8 7 -18 5 -22 -3 -4 2 -5 11
-2 11 5 18 0 22 -14 3 -11 11 -18 17 -16 7 3 19 -2 26 -11 7 -8 19 -15 26 -15
8 0 14 -7 14 -15 0 -8 5 -15 10 -15 6 0 10 -7 10 -15 0 -18 16 -20 23 -2 4 9
8 9 14 0 4 -6 21 -15 36 -18 16 -4 31 -13 34 -20 2 -7 20 -16 39 -19 23 -5 34
-13 34 -24 0 -15 2 -15 10 -2 6 10 10 11 10 3 0 -8 14 -13 35 -13 28 0 38 -5
45 -22 5 -13 9 -17 9 -10 1 14 28 16 33 2 2 -5 31 -13 66 -16 34 -4 62 -10 62
-14 0 -4 11 -5 25 -2 18 3 25 0 25 -12 0 -9 5 -16 10 -16 6 0 10 5 10 10 0 6
20 10 45 10 29 0 45 -4 45 -12 0 -10 42 -13 175 -13 133 0 175 3 175 13 0 16
77 16 83 0 3 -8 6 -5 6 6 1 15 6 17 30 13 16 -4 31 -2 33 4 2 5 31 10 66 12
40 1 62 6 62 14 0 14 75 37 96 29 8 -3 14 1 14 8 0 7 21 19 48 26 26 8 51 18
55 24 6 8 10 7 14 -1 7 -20 20 -15 26 8 3 12 10 18 16 14 6 -3 11 1 11 9 0 19
26 21 33 4 4 -10 6 -10 6 0 1 17 38 52 55 52 7 0 25 11 40 25 15 14 33 25 41
25 8 0 20 8 27 18 7 9 27 24 43 32 17 8 44 29 60 47 30 31 43 37 78 34 18 -1
26 -51 7 -51 -5 0 -10 -4 -10 -10 0 -5 7 -10 16 -10 13 0 15 -9 12 -45 -2 -25
1 -45 6 -45 4 0 6 -46 4 -101 -2 -56 -2 -96 0 -90 6 17 549 16 555 -1 2 -8 8
-9 13 -4 5 5 4 11 -3 13 -18 6 -17 93 0 93 9 0 12 11 9 35 -2 19 0 35 5 35 5
0 8 13 5 30 -3 24 -1 30 14 31 11 0 14 3 7 6 -16 6 -18 103 -3 103 6 0 10 11
10 25 0 14 5 25 11 25 5 0 7 5 4 11 -11 17 5 119 18 119 8 0 13 27 14 82 1 44
6 84 10 87 4 3 9 31 11 61 2 30 7 57 12 58 6 2 10 26 10 53 0 27 3 49 8 49 4
0 8 28 8 62 1 37 5 63 12 66 7 2 12 26 12 58 0 30 4 54 8 54 5 0 7 13 4 30 -3
23 0 30 12 30 9 0 16 5 16 10 0 6 -4 10 -10 10 -5 0 -10 9 -10 20 0 11 6 20
13 20 7 0 12 12 13 27 1 125 4 143 22 144 10 0 12 3 5 6 -17 6 -17 53 0 53 9
0 12 11 9 35 -2 19 0 35 4 35 5 0 7 22 6 50 -3 43 -1 50 15 51 10 0 13 3 6 6
-15 5 -18 63 -4 63 5 0 12 25 16 55 3 30 10 55 14 55 4 0 6 25 3 55 -4 49 -2
55 14 56 11 0 14 3 7 6 -17 6 -17 63 0 63 9 0 12 10 9 30 -2 17 0 30 4 30 5 0
9 25 9 55 0 30 -2 50 -3 45 -4 -12 -52 35 -52 51 0 5 -317 9 -839 9 l-839 0
-12 -80 c-7 -44 -16 -80 -21 -80 -5 0 -9 -11 -9 -25 0 -14 -3 -25 -7 -25 -5 0
-6 -27 -5 -60 3 -53 2 -60 -15 -61 -10 0 -13 -3 -5 -6 14 -5 17 -63 3 -63 -5
0 -12 -22 -16 -50 -5 -37 -11 -50 -23 -51 -11 0 -12 -2 -4 -6 15 -6 17 -123 2
-123 -5 0 -10 -11 -10 -25 0 -14 -3 -25 -7 -25 -5 0 -9 -23 -10 -51 0 -31 -7
-55 -15 -60 -10 -7 -10 -9 2 -9 18 0 55 -38 63 -65 7 -20 14 -20 314 -17 170
2 318 0 331 -3 23 -6 31 -25 9 -25 -8 0 -14 -15 -15 -37 -3 -49 -21 -93 -37
-93 -8 0 -11 -8 -8 -20 3 -12 0 -20 -6 -20 -7 0 -9 -4 -6 -10 3 -5 -3 -17 -15
-27 -11 -10 -20 -26 -20 -36 0 -9 -8 -21 -17 -24 -26 -10 -63 -45 -73 -70 -5
-13 -17 -23 -25 -23 -9 0 -26 -9 -38 -21 -12 -11 -30 -18 -39 -15 -12 3 -18
-2 -18 -12 0 -15 -2 -15 -10 -2 -5 8 -10 12 -12 10 -2 -3 -8 -14 -14 -25 -6
-11 -23 -21 -38 -23 -14 -2 -26 -7 -26 -11 0 -11 -88 -33 -101 -26 -5 4 -9 -1
-9 -9 0 -14 -19 -16 -135 -16 -117 0 -135 2 -135 16 0 10 -6 14 -14 11 -20 -8
-86 14 -86 28 0 7 -9 11 -22 8 -25 -4 -72 33 -83 65 -3 11 -18 22 -35 26 -17
3 -30 12 -30 20 0 8 -8 21 -18 28 -10 7 -22 25 -26 40 -3 15 -14 35 -24 45
-10 10 -24 47 -31 83 -7 36 -17 67 -22 68 -12 5 -12 32 1 32 6 0 10 5 10 10 0
6 -7 10 -16 10 -15 0 -16 11 -12 90 3 50 2 90 -3 90 -5 0 -9 29 -9 65 0 36 4
65 9 65 6 0 7 36 4 88 -7 105 3 202 21 202 8 0 11 12 8 35 -3 22 0 35 8 35 6
0 9 8 6 18 -8 23 11 184 23 191 5 3 15 39 22 79 7 39 16 72 20 72 4 0 13 29
20 65 7 36 15 65 19 65 3 0 12 23 19 50 7 28 16 50 21 50 4 0 13 20 19 45 6
25 15 45 19 45 4 0 14 21 21 46 8 25 20 48 27 51 8 3 14 14 14 25 0 11 8 22
20 25 23 6 26 19 8 26 -10 4 -10 6 0 6 6 1 12 7 12 15 0 8 8 21 18 28 9 7 24
26 32 42 16 33 51 71 72 79 11 4 11 6 0 6 -15 1 59 81 75 81 6 0 17 9 24 20 8
12 25 22 39 23 27 1 50 19 50 37 0 7 8 10 20 7 11 -3 20 -1 20 4 0 5 6 9 14 9
8 0 17 7 20 16 5 12 16 15 46 12 22 -2 40 0 40 5 0 5 11 7 25 5 17 -4 25 -1
25 8 0 18 66 19 73 2 3 -8 6 -6 6 5 1 22 51 24 51 2 0 -8 5 -15 10 -15 6 0 10
5 10 10 0 6 16 10 35 10 19 0 35 -4 35 -10 0 -5 14 -10 30 -10 17 0 30 -4 30
-9 0 -4 11 -6 24 -4 15 3 31 -3 47 -19 13 -13 32 -22 41 -20 11 2 22 -6 29
-22 7 -14 17 -26 23 -26 16 0 57 -52 52 -66 -3 -7 2 -15 11 -18 11 -5 14 -14
10 -35 -5 -24 -2 -30 15 -34 14 -4 19 -11 14 -23 -4 -10 1 -23 14 -34 17 -15
20 -35 26 -169 6 -118 10 -154 21 -158 8 -3 19 -16 24 -29 4 -13 15 -24 23
-24 10 0 13 -6 10 -15 -4 -10 0 -15 15 -15 12 0 21 6 21 14 0 10 20 16 68 21
37 4 70 12 73 17 4 6 59 11 128 12 66 0 121 4 121 7 0 4 32 10 70 13 39 4 70
11 70 17 0 14 157 11 163 -3 3 -8 6 -5 6 6 1 15 8 17 46 14 25 -2 45 1 45 6 0
4 16 6 35 4 24 -3 35 0 35 9 0 7 11 13 25 13 21 0 25 5 25 30 0 17 5 30 13 30
8 0 12 19 12 60 0 41 -4 60 -12 60 -10 0 -13 28 -13 104 0 74 4 106 13 109 7
4 6 6 -4 6 -12 1 -18 15 -23 53 -4 29 -11 55 -16 58 -5 3 -11 32 -12 63 -1 31
-6 57 -11 57 -4 0 -5 5 -2 10 3 6 0 10 -8 10 -9 0 -18 20 -26 55 -7 30 -16 55
-21 55 -5 0 -14 18 -20 41 -6 22 -20 48 -31 57 -10 9 -19 24 -19 33 0 9 -9 26
-20 39 -12 13 -18 29 -16 36 3 7 -3 16 -13 19 -10 3 -24 18 -32 33 -8 15 -22
34 -31 43 -10 9 -18 21 -18 28 0 6 -6 11 -13 11 -7 0 -29 18 -49 39 -19 21
-46 45 -59 51 -13 7 -28 19 -32 26 -4 8 -14 14 -22 14 -8 0 -22 11 -31 25 -9
14 -24 25 -34 25 -9 0 -28 9 -41 21 -13 11 -36 23 -51 26 -16 3 -28 12 -28 19
0 8 -3 13 -7 13 -17 -4 -93 14 -93 21 0 4 -11 11 -25 14 -14 4 -25 13 -25 21
0 18 -16 20 -24 3 -5 -10 -7 -10 -12 0 -3 6 -21 12 -40 12 -19 0 -34 4 -34 9
0 4 -11 6 -25 3 -14 -2 -25 0 -25 4 0 5 -15 9 -32 9 -163 2 -207 6 -210 18 -2
9 -39 11 -150 9z"/>
<path d="M16145 4227 c-5 -7 -12 -52 -13 -102 -2 -49 -7 -92 -12 -95 -4 -3
-11 -26 -15 -52 -5 -31 -12 -48 -21 -48 -8 0 -14 -4 -14 -10 0 -5 5 -10 10
-10 6 0 10 -22 10 -50 0 -34 -4 -50 -13 -50 -9 0 -12 -11 -9 -35 2 -19 0 -35
-6 -35 -5 0 -7 -11 -4 -25 3 -19 0 -25 -14 -26 -11 0 -14 -3 -6 -6 6 -2 12
-13 12 -24 0 -10 -6 -19 -12 -19 -9 0 -12 -17 -10 -60 2 -33 0 -60 -5 -60 -5
0 -8 -13 -5 -30 3 -23 0 -30 -12 -30 -9 0 -16 -4 -16 -10 0 -5 5 -10 10 -10 6
0 10 -11 10 -25 0 -14 -4 -25 -10 -25 -5 0 -10 -25 -10 -55 0 -30 -4 -55 -8
-55 -5 0 -7 -13 -4 -30 2 -16 0 -30 -5 -30 -6 0 -8 -11 -5 -25 3 -18 0 -25
-12 -25 -9 0 -16 -4 -16 -10 0 -5 5 -10 10 -10 6 0 10 -9 10 -20 0 -11 -4 -20
-10 -20 -5 0 -10 -25 -10 -55 0 -30 -4 -55 -9 -55 -6 0 -7 -16 -4 -35 5 -29 3
-35 -13 -36 -11 0 -14 -3 -6 -6 14 -6 16 -40 2 -45 -6 -2 -15 -55 -20 -118 -6
-63 -15 -117 -20 -120 -6 -4 -15 -55 -20 -115 -5 -60 -13 -111 -18 -114 -11
-8 -32 -128 -32 -185 0 -37 -3 -46 -17 -47 -11 0 -13 -3 -5 -6 16 -6 16 -53
-1 -53 -7 0 -13 -10 -13 -22 -1 -125 -4 -148 -21 -149 -11 0 -13 -3 -5 -6 17
-7 16 -63 -2 -63 -9 0 -12 -8 -8 -25 2 -14 0 -25 -5 -25 -6 0 -8 -11 -5 -25 3
-19 0 -25 -14 -26 -11 0 -14 -3 -6 -6 15 -6 17 -123 2 -123 -5 0 -10 -11 -10
-25 0 -14 -4 -25 -9 -25 -4 0 -8 -15 -8 -32 3 -94 -4 -148 -16 -148 -9 0 -12
-10 -9 -30 2 -16 0 -30 -5 -30 -6 0 -8 -11 -5 -25 2 -14 0 -25 -6 -25 -5 0
-10 -12 -9 -27 3 -83 -4 -143 -16 -143 -8 0 -13 -14 -14 -37 -2 -106 -16 -203
-30 -203 -8 0 -11 -5 -8 -10 9 -14 -16 -160 -26 -160 -5 0 -9 -22 -9 -50 0
-63 -21 -190 -32 -190 -4 0 -8 -25 -8 -55 0 -34 -4 -55 -11 -55 -6 0 -8 -7 -5
-17 11 -29 -4 -102 -23 -105 -13 -3 -11 -8 12 -28 15 -13 27 -32 27 -42 0 -10
7 -18 15 -18 8 0 15 -4 15 -10 0 -6 135 -10 385 -10 378 0 385 0 385 20 0 11
6 20 14 20 11 0 13 9 9 35 -3 19 -2 35 3 35 5 0 10 26 11 58 2 31 7 58 13 60
5 2 10 26 10 53 0 27 3 49 8 49 4 0 8 19 8 43 3 107 17 197 31 197 8 0 12 4 8
9 -3 5 -2 35 1 65 5 42 11 56 23 57 10 0 12 2 4 6 -17 6 -17 43 0 43 9 0 12
10 9 30 -2 17 -1 55 3 85 5 42 11 55 23 56 11 0 12 2 5 6 -18 7 -17 63 1 63 9
0 12 8 8 25 -2 14 0 25 4 25 5 0 7 27 6 60 -3 53 -2 60 15 61 10 0 13 3 6 6
-19 7 -16 53 2 53 11 0 14 7 9 25 -3 14 -2 25 3 25 6 0 8 24 5 55 -4 49 -2 55
14 56 11 0 14 3 7 6 -17 6 -17 63 0 63 9 0 12 10 9 30 -2 16 0 30 5 30 5 0 9
10 9 23 1 124 4 147 22 148 10 0 12 3 5 6 -16 6 -17 60 -3 65 6 2 13 36 17 76
4 51 10 72 19 72 8 0 14 5 14 10 0 6 -4 10 -10 10 -5 0 -10 11 -10 25 0 14 6
25 13 25 7 0 12 14 13 33 3 102 18 197 30 197 10 0 12 9 8 30 -4 17 -3 30 2
30 5 0 10 32 12 71 2 46 8 77 18 86 7 8 14 10 14 6 0 -5 9 -19 20 -31 11 -11
24 -42 30 -69 6 -26 16 -51 23 -55 9 -6 9 -8 0 -8 -7 0 -13 -4 -13 -10 0 -5 7
-10 15 -10 9 0 15 -9 15 -24 0 -14 7 -32 17 -41 14 -14 14 -18 2 -26 -11 -7
-11 -9 3 -9 11 0 15 -5 12 -15 -4 -8 -1 -15 5 -15 6 0 11 -9 11 -19 0 -11 6
-22 13 -25 10 -5 10 -7 0 -12 -19 -9 -16 -21 7 -27 14 -3 20 -14 20 -31 0 -14
4 -26 8 -26 9 0 42 -87 42 -112 0 -9 5 -18 10 -20 6 -2 12 -13 13 -26 0 -12 5
-22 9 -22 4 0 8 -7 8 -15 0 -8 5 -15 10 -15 6 0 10 -8 10 -17 0 -19 22 -86 31
-93 3 -3 12 -23 19 -45 7 -22 18 -44 24 -48 8 -6 7 -10 -1 -14 -17 -6 -17 -23
0 -23 7 0 19 -20 26 -45 7 -25 17 -45 21 -45 4 0 10 -18 14 -39 3 -22 13 -47
22 -55 8 -9 18 -32 21 -52 3 -20 12 -38 19 -41 17 -6 18 -30 2 -36 -8 -3 -6
-6 5 -6 12 -1 17 -9 17 -31 0 -16 7 -33 15 -37 8 -5 16 -20 17 -33 2 -14 6
-28 11 -31 4 -3 9 -20 10 -37 1 -18 7 -32 14 -32 12 0 28 -58 25 -92 0 -10 6
-18 14 -18 14 0 18 -11 15 -37 -1 -7 3 -13 10 -13 7 0 9 -10 7 -24 -4 -18 0
-26 15 -30 14 -3 18 -11 14 -25 -3 -12 -1 -21 4 -21 5 0 9 -11 9 -25 0 -14 4
-25 9 -25 5 0 15 -16 22 -35 7 -19 16 -35 20 -35 7 0 23 -77 20 -98 -1 -6 3
-12 9 -12 6 0 8 -5 5 -10 -3 -6 0 -10 8 -10 15 0 31 -55 21 -71 -3 -5 -1 -9 5
-9 6 0 8 -7 5 -15 -4 -9 0 -15 10 -15 9 0 17 -9 18 -20 0 -11 1 -26 2 -32 1
-7 11 -23 24 -36 12 -13 22 -35 22 -52 0 -16 7 -36 17 -45 14 -14 14 -18 2
-26 -11 -7 -10 -9 5 -9 14 0 17 -6 14 -25 -3 -13 -1 -26 4 -27 5 -2 10 -13 11
-26 0 -12 7 -22 13 -22 7 0 15 -14 19 -30 l7 -30 444 0 c289 0 444 3 444 10 0
6 8 10 18 11 10 0 12 3 5 6 -19 7 -18 123 1 123 9 0 12 8 8 25 -2 15 0 25 7
25 7 0 10 4 7 9 -11 16 6 161 18 161 8 0 10 13 8 35 -2 19 0 35 4 35 5 0 10
21 10 47 1 26 7 49 13 51 7 2 11 30 11 68 0 35 3 64 8 64 4 0 8 24 9 52 1 29
7 54 13 56 5 2 10 28 10 58 0 30 3 54 8 54 4 0 8 26 8 57 1 32 7 59 13 61 6 2
11 17 11 33 0 16 4 29 8 29 4 0 6 16 4 35 -2 20 -1 60 3 90 5 42 11 55 23 56
11 0 12 2 5 6 -7 2 -13 13 -13 24 0 10 6 19 13 19 8 0 11 17 9 60 -2 33 0 60
5 60 5 0 8 13 5 30 -3 23 0 30 12 30 9 0 16 5 16 10 0 6 -4 10 -10 10 -5 0
-10 9 -10 20 0 11 6 20 14 20 9 0 12 8 8 25 -2 14 0 25 4 25 5 0 7 27 6 60 -3
53 -2 60 15 61 10 0 13 3 6 6 -19 7 -16 53 2 53 11 0 14 7 9 25 -4 16 -2 25 6
25 7 0 9 8 5 21 -11 34 5 169 19 169 9 0 12 9 8 25 -2 15 0 25 7 25 7 0 10 4
7 9 -3 5 -3 43 1 85 5 60 9 76 22 77 10 0 12 2 4 6 -14 5 -18 73 -4 73 12 0
31 103 31 167 0 38 4 53 14 53 8 0 13 11 13 28 1 67 17 212 23 212 4 0 13 36
21 80 7 44 18 80 24 80 6 0 9 16 7 41 -6 54 18 189 32 189 7 0 10 21 8 60 -2
33 0 60 5 60 5 0 8 14 5 30 -2 18 0 30 7 30 6 0 8 11 5 30 -5 25 -3 30 12 31
11 0 14 3 7 6 -7 2 -13 13 -13 24 0 10 6 19 13 19 8 0 11 17 9 60 -2 33 0 60
5 60 5 0 8 14 5 30 -3 23 0 30 12 30 9 0 16 5 16 10 0 6 -4 10 -10 10 -5 0
-10 9 -10 20 0 11 6 20 13 20 8 0 11 16 9 55 -2 33 0 55 6 55 7 0 8 14 5 35
-5 29 -3 35 13 36 11 0 14 3 7 6 -7 2 -13 13 -13 24 0 10 6 19 13 19 7 0 12
14 12 38 1 20 3 44 6 52 3 8 4 12 2 8 -7 -12 -53 35 -53 54 0 17 -20 18 -395
18 -257 0 -395 -4 -395 -10 0 -5 -7 -10 -15 -10 -8 0 -15 -4 -15 -10 0 -5 5
-10 10 -10 6 0 10 -9 10 -20 0 -11 -6 -20 -12 -20 -9 0 -12 -17 -10 -60 2 -33
0 -60 -5 -60 -5 0 -8 -13 -5 -30 2 -16 0 -30 -4 -30 -5 0 -10 -37 -12 -83 -2
-45 -7 -83 -13 -85 -5 -2 -9 -19 -9 -38 0 -19 -4 -34 -9 -34 -4 0 -6 -11 -3
-25 3 -19 0 -25 -14 -26 -11 0 -14 -3 -6 -6 14 -6 17 -53 2 -53 -5 0 -10 -25
-10 -55 0 -30 -3 -55 -7 -55 -5 0 -9 -28 -9 -62 -1 -35 -7 -64 -13 -66 -6 -2
-11 -24 -11 -48 0 -24 -4 -44 -9 -44 -5 0 -7 -18 -4 -40 5 -34 3 -40 -13 -41
-11 0 -14 -3 -6 -6 14 -6 17 -63 2 -63 -5 0 -10 -9 -10 -20 0 -11 -3 -20 -7
-20 -5 0 -6 -25 -5 -55 2 -33 0 -55 -6 -55 -7 0 -8 -14 -5 -35 5 -29 3 -35
-13 -36 -11 0 -14 -3 -6 -6 16 -6 15 -43 -2 -43 -9 0 -12 -8 -8 -25 8 -46 -8
-155 -24 -155 -8 0 -14 -4 -14 -10 0 -5 5 -10 10 -10 6 0 10 -9 10 -20 0 -11
-6 -20 -14 -20 -9 0 -12 -8 -8 -25 2 -14 0 -25 -4 -25 -5 0 -7 -27 -6 -60 3
-53 2 -60 -15 -61 -10 0 -13 -3 -5 -6 17 -7 15 -53 -3 -53 -11 0 -13 -8 -8
-30 3 -16 2 -30 -3 -30 -5 0 -10 -37 -10 -81 -1 -57 -6 -84 -15 -90 -18 -11
-21 -11 -39 1 -13 9 -13 11 0 20 13 8 12 10 -4 10 -14 0 -17 6 -14 23 2 13 0
28 -6 35 -29 30 -36 43 -36 62 0 11 5 20 10 20 6 0 10 5 10 10 0 6 -7 10 -15
10 -9 0 -19 8 -22 18 -4 9 -13 23 -20 30 -7 7 -13 27 -13 43 0 17 -6 32 -15
35 -18 7 -20 30 -2 37 7 3 6 6 -5 6 -20 1 -32 33 -23 61 5 15 2 20 -12 20 -15
0 -16 2 -3 10 13 8 12 10 -4 10 -12 0 -16 5 -12 15 3 8 0 15 -5 15 -7 0 -9 11
-7 25 4 18 0 26 -13 30 -22 7 -25 31 -6 38 7 4 6 6 -4 6 -18 1 -29 21 -29 52
0 10 -4 19 -8 19 -9 0 -32 59 -32 82 0 9 -5 18 -11 20 -6 2 -11 16 -11 31 0
15 -5 27 -10 27 -5 0 -6 5 -3 10 3 6 0 10 -9 10 -14 0 -33 68 -27 98 1 6 -4
12 -12 12 -12 0 -30 59 -26 86 0 3 -9 14 -20 23 -12 10 -21 25 -21 34 0 17
-21 69 -31 77 -8 6 -23 80 -20 98 1 6 -5 12 -13 12 -13 0 -36 54 -36 87 0 6
-6 14 -12 16 -10 4 -10 6 0 6 18 1 15 21 -4 21 -12 0 -15 7 -12 23 2 13 0 28
-6 35 -28 30 -35 42 -42 76 -3 20 -13 44 -22 52 -8 9 -15 29 -16 45 -1 16 -4
29 -8 29 -5 0 -8 9 -8 20 0 11 -6 20 -12 20 -9 0 -8 4 2 10 13 8 13 10 -2 10
-12 0 -19 12 -24 38 -4 20 -11 40 -16 43 -5 3 -10 16 -11 27 -1 12 -5 22 -9
22 -4 0 -8 7 -8 15 0 8 -4 15 -9 15 -5 0 -11 12 -14 28 -14 70 -32 128 -41
134 -6 4 -256 8 -556 7 -414 0 -547 -3 -555 -12z"/>
<path d="M3770 4000 c0 -5 5 -10 10 -10 6 0 10 5 10 10 0 6 -4 10 -10 10 -5 0
-10 -4 -10 -10z"/>
<path d="M20120 1050 c0 -7 -163 -10 -470 -10 l-470 0 0 -25 c0 -17 -6 -25
-17 -26 -11 0 -13 -3 -5 -6 14 -6 17 -53 2 -53 -5 0 -10 -19 -10 -42 0 -69
-11 -118 -26 -118 -8 0 -14 -7 -14 -15 0 -8 5 -15 10 -15 6 0 10 -11 10 -25 0
-14 -4 -25 -10 -25 -5 0 -10 -9 -10 -20 0 -11 -3 -20 -7 -20 -5 0 -6 -22 -5
-50 3 -41 1 -50 -12 -50 -9 0 -16 -7 -16 -15 0 -8 5 -15 10 -15 6 0 10 -13 10
-30 0 -16 -4 -30 -10 -30 -5 0 -10 -9 -10 -20 0 -11 -3 -20 -7 -20 -5 0 -9
-42 -9 -92 -1 -57 -6 -94 -13 -96 -6 -2 -11 -15 -11 -28 0 -13 -4 -24 -9 -24
-4 0 -6 -11 -3 -25 3 -18 0 -25 -12 -25 -9 0 -16 -4 -16 -10 0 -5 5 -10 10
-10 6 0 10 -6 10 -12 0 -7 14 -24 30 -37 17 -13 29 -31 28 -40 -2 -9 3 -16 10
-15 6 1 225 2 486 3 l473 1 -5 25 c-3 18 0 25 12 25 9 0 16 5 16 10 0 6 -4 10
-10 10 -5 0 -10 7 -10 15 0 8 6 15 14 15 10 0 12 11 8 45 -6 56 17 195 32 195
7 0 10 21 8 60 -2 33 0 60 5 60 5 0 8 14 5 30 -2 18 0 30 7 30 6 0 8 11 5 30
-5 25 -3 30 12 31 11 0 14 3 7 6 -15 6 -17 43 -3 43 6 0 10 24 10 53 0 77 11
127 26 127 8 0 14 5 14 10 0 6 -4 10 -10 10 -5 0 -10 7 -10 15 0 8 5 15 10 15
6 0 10 23 10 50 0 33 -4 50 -12 50 -9 0 -8 4 2 10 10 6 11 10 3 10 -18 0 -58
42 -55 57 2 7 0 13 -3 13 -3 0 -5 -4 -5 -10z"/>
</g>
</svg>
